<mxfile host="app.diagrams.net" agent="Mozilla/5.0 (Windows NT 10.0; Win64; x64) AppleWebKit/537.36 (KHTML, like Gecko) Chrome/127.0.0.0 Safari/537.36" version="24.7.6">
  <diagram name="Página-1" id="bmzCrJvvdwPaQZdCHV0D">
    <mxGraphModel dx="1050" dy="522" grid="1" gridSize="10" guides="1" tooltips="1" connect="1" arrows="1" fold="1" page="1" pageScale="1" pageWidth="827" pageHeight="1169" math="0" shadow="0">
      <root>
        <mxCell id="0" />
        <mxCell id="1" parent="0" />
        <mxCell id="ox03FAlICArOvDzJ_NhT-1" value="Usuario" style="shape=umlActor;verticalLabelPosition=bottom;verticalAlign=top;html=1;outlineConnect=0;" vertex="1" parent="1">
          <mxGeometry x="64" y="71" width="30" height="60" as="geometry" />
        </mxCell>
        <mxCell id="ox03FAlICArOvDzJ_NhT-2" value="Sistema" style="rounded=1;whiteSpace=wrap;html=1;fillColor=#d5e8d4;strokeColor=#82b366;" vertex="1" parent="1">
          <mxGeometry x="278" y="66" width="110" height="50" as="geometry" />
        </mxCell>
        <mxCell id="ox03FAlICArOvDzJ_NhT-3" value="" style="rounded=1;whiteSpace=wrap;html=1;rotation=90;fillColor=#000000;arcSize=50;" vertex="1" parent="1">
          <mxGeometry x="-13.25" y="285.75" width="188.5" height="20" as="geometry" />
        </mxCell>
        <mxCell id="ox03FAlICArOvDzJ_NhT-4" value="" style="endArrow=none;dashed=1;html=1;dashPattern=1 3;strokeWidth=2;rounded=0;" edge="1" parent="1">
          <mxGeometry width="50" height="50" relative="1" as="geometry">
            <mxPoint x="81" y="213" as="sourcePoint" />
            <mxPoint x="81" y="163" as="targetPoint" />
          </mxGeometry>
        </mxCell>
        <mxCell id="ox03FAlICArOvDzJ_NhT-5" value="" style="rounded=1;whiteSpace=wrap;html=1;rotation=90;fillColor=#000000;arcSize=50;" vertex="1" parent="1">
          <mxGeometry x="242.75" y="285.75" width="188.5" height="20" as="geometry" />
        </mxCell>
        <mxCell id="ox03FAlICArOvDzJ_NhT-6" value="" style="endArrow=none;dashed=1;html=1;dashPattern=1 3;strokeWidth=2;rounded=0;" edge="1" parent="1">
          <mxGeometry width="50" height="50" relative="1" as="geometry">
            <mxPoint x="336.5" y="210" as="sourcePoint" />
            <mxPoint x="337" y="140" as="targetPoint" />
          </mxGeometry>
        </mxCell>
        <mxCell id="ox03FAlICArOvDzJ_NhT-7" value="" style="endArrow=classic;html=1;rounded=0;" edge="1" parent="1">
          <mxGeometry width="50" height="50" relative="1" as="geometry">
            <mxPoint x="97" y="219" as="sourcePoint" />
            <mxPoint x="318" y="220" as="targetPoint" />
          </mxGeometry>
        </mxCell>
        <mxCell id="ox03FAlICArOvDzJ_NhT-8" value="1.Solicita redefinição de senha" style="edgeLabel;html=1;align=center;verticalAlign=middle;resizable=0;points=[];" vertex="1" connectable="0" parent="ox03FAlICArOvDzJ_NhT-7">
          <mxGeometry x="-0.0275" relative="1" as="geometry">
            <mxPoint x="-2" y="-1" as="offset" />
          </mxGeometry>
        </mxCell>
        <mxCell id="ox03FAlICArOvDzJ_NhT-9" value="Banco de Dados&lt;br&gt;Local" style="rounded=1;whiteSpace=wrap;html=1;fillColor=#d5e8d4;strokeColor=#82b366;" vertex="1" parent="1">
          <mxGeometry x="524" y="66" width="110" height="50" as="geometry" />
        </mxCell>
        <mxCell id="ox03FAlICArOvDzJ_NhT-10" value="1" style="rounded=1;whiteSpace=wrap;html=1;rotation=90;fillColor=#000000;arcSize=50;" vertex="1" parent="1">
          <mxGeometry x="490.13" y="285.88" width="186.25" height="20" as="geometry" />
        </mxCell>
        <mxCell id="ox03FAlICArOvDzJ_NhT-11" value="" style="endArrow=none;dashed=1;html=1;dashPattern=1 3;strokeWidth=2;rounded=0;" edge="1" parent="1">
          <mxGeometry width="50" height="50" relative="1" as="geometry">
            <mxPoint x="582.75" y="214" as="sourcePoint" />
            <mxPoint x="583.25" y="144" as="targetPoint" />
          </mxGeometry>
        </mxCell>
        <mxCell id="ox03FAlICArOvDzJ_NhT-12" value="" style="endArrow=classic;html=1;rounded=0;dashed=1;" edge="1" parent="1">
          <mxGeometry width="50" height="50" relative="1" as="geometry">
            <mxPoint x="316" y="374" as="sourcePoint" />
            <mxPoint x="96" y="374" as="targetPoint" />
          </mxGeometry>
        </mxCell>
        <mxCell id="ox03FAlICArOvDzJ_NhT-13" value="10.Confirmar redefinição de senha" style="edgeLabel;html=1;align=center;verticalAlign=middle;resizable=0;points=[];" vertex="1" connectable="0" parent="ox03FAlICArOvDzJ_NhT-12">
          <mxGeometry x="0.1796" relative="1" as="geometry">
            <mxPoint x="16" as="offset" />
          </mxGeometry>
        </mxCell>
        <mxCell id="ox03FAlICArOvDzJ_NhT-14" value="" style="endArrow=none;dashed=1;html=1;rounded=0;" edge="1" parent="1">
          <mxGeometry width="50" height="50" relative="1" as="geometry">
            <mxPoint x="80.58" y="480" as="sourcePoint" />
            <mxPoint x="80.58" y="410" as="targetPoint" />
          </mxGeometry>
        </mxCell>
        <mxCell id="ox03FAlICArOvDzJ_NhT-15" value="" style="endArrow=none;html=1;rounded=0;strokeWidth=4;" edge="1" parent="1">
          <mxGeometry width="50" height="50" relative="1" as="geometry">
            <mxPoint x="53" y="539" as="sourcePoint" />
            <mxPoint x="103" y="489" as="targetPoint" />
          </mxGeometry>
        </mxCell>
        <mxCell id="ox03FAlICArOvDzJ_NhT-16" value="" style="endArrow=none;html=1;rounded=0;strokeWidth=4;" edge="1" parent="1">
          <mxGeometry width="50" height="50" relative="1" as="geometry">
            <mxPoint x="57" y="486" as="sourcePoint" />
            <mxPoint x="101" y="542" as="targetPoint" />
          </mxGeometry>
        </mxCell>
        <mxCell id="ox03FAlICArOvDzJ_NhT-17" value="" style="endArrow=classic;html=1;rounded=0;" edge="1" parent="1">
          <mxGeometry width="50" height="50" relative="1" as="geometry">
            <mxPoint x="316" y="235" as="sourcePoint" />
            <mxPoint x="97" y="235" as="targetPoint" />
          </mxGeometry>
        </mxCell>
        <mxCell id="ox03FAlICArOvDzJ_NhT-18" value="&amp;nbsp;2.Enviar e-mail com token de redefiniçã&lt;span class=&quot;hljs-title function_ invoke__&quot;&gt;o&lt;/span&gt;" style="edgeLabel;html=1;align=center;verticalAlign=middle;resizable=0;points=[];" vertex="1" connectable="0" parent="ox03FAlICArOvDzJ_NhT-17">
          <mxGeometry x="-0.0275" relative="1" as="geometry">
            <mxPoint x="-2" y="-1" as="offset" />
          </mxGeometry>
        </mxCell>
        <mxCell id="ox03FAlICArOvDzJ_NhT-19" value="" style="endArrow=classic;html=1;rounded=0;" edge="1" parent="1">
          <mxGeometry width="50" height="50" relative="1" as="geometry">
            <mxPoint x="102" y="273" as="sourcePoint" />
            <mxPoint x="312" y="274" as="targetPoint" />
          </mxGeometry>
        </mxCell>
        <mxCell id="ox03FAlICArOvDzJ_NhT-20" value="3.Entrada de dados(Token)" style="edgeLabel;html=1;align=center;verticalAlign=middle;resizable=0;points=[];" vertex="1" connectable="0" parent="ox03FAlICArOvDzJ_NhT-19">
          <mxGeometry x="-0.0275" relative="1" as="geometry">
            <mxPoint x="-2" y="-1" as="offset" />
          </mxGeometry>
        </mxCell>
        <mxCell id="ox03FAlICArOvDzJ_NhT-21" value="" style="endArrow=classic;html=1;rounded=0;" edge="1" parent="1">
          <mxGeometry width="50" height="50" relative="1" as="geometry">
            <mxPoint x="355" y="274" as="sourcePoint" />
            <mxPoint x="565" y="275" as="targetPoint" />
          </mxGeometry>
        </mxCell>
        <mxCell id="ox03FAlICArOvDzJ_NhT-22" value="&amp;nbsp;4.Validar token de redefinição" style="edgeLabel;html=1;align=center;verticalAlign=middle;resizable=0;points=[];" vertex="1" connectable="0" parent="ox03FAlICArOvDzJ_NhT-21">
          <mxGeometry x="-0.0275" relative="1" as="geometry">
            <mxPoint x="-2" y="-1" as="offset" />
          </mxGeometry>
        </mxCell>
        <mxCell id="ox03FAlICArOvDzJ_NhT-23" value="" style="endArrow=classic;html=1;rounded=0;dashed=1;" edge="1" parent="1">
          <mxGeometry width="50" height="50" relative="1" as="geometry">
            <mxPoint x="566" y="296" as="sourcePoint" />
            <mxPoint x="356" y="295" as="targetPoint" />
          </mxGeometry>
        </mxCell>
        <mxCell id="ox03FAlICArOvDzJ_NhT-24" value="5.Confirma vericidade do token" style="edgeLabel;html=1;align=center;verticalAlign=middle;resizable=0;points=[];" vertex="1" connectable="0" parent="ox03FAlICArOvDzJ_NhT-23">
          <mxGeometry x="-0.0275" relative="1" as="geometry">
            <mxPoint x="-2" y="-1" as="offset" />
          </mxGeometry>
        </mxCell>
        <mxCell id="ox03FAlICArOvDzJ_NhT-25" value="" style="endArrow=classic;html=1;rounded=0;" edge="1" parent="1">
          <mxGeometry width="50" height="50" relative="1" as="geometry">
            <mxPoint x="102" y="324" as="sourcePoint" />
            <mxPoint x="312" y="325" as="targetPoint" />
          </mxGeometry>
        </mxCell>
        <mxCell id="ox03FAlICArOvDzJ_NhT-26" value="6.Informa nova senha" style="edgeLabel;html=1;align=center;verticalAlign=middle;resizable=0;points=[];" vertex="1" connectable="0" parent="ox03FAlICArOvDzJ_NhT-25">
          <mxGeometry x="-0.0275" relative="1" as="geometry">
            <mxPoint x="-2" y="-1" as="offset" />
          </mxGeometry>
        </mxCell>
        <mxCell id="ox03FAlICArOvDzJ_NhT-27" value="" style="endArrow=classic;html=1;rounded=0;" edge="1" parent="1">
          <mxGeometry width="50" height="50" relative="1" as="geometry">
            <mxPoint x="355" y="324" as="sourcePoint" />
            <mxPoint x="565" y="325" as="targetPoint" />
          </mxGeometry>
        </mxCell>
        <mxCell id="ox03FAlICArOvDzJ_NhT-28" value="7.Valida dados" style="edgeLabel;html=1;align=center;verticalAlign=middle;resizable=0;points=[];" vertex="1" connectable="0" parent="ox03FAlICArOvDzJ_NhT-27">
          <mxGeometry x="-0.0275" relative="1" as="geometry">
            <mxPoint x="-2" y="-1" as="offset" />
          </mxGeometry>
        </mxCell>
        <mxCell id="ox03FAlICArOvDzJ_NhT-29" value="" style="endArrow=classic;html=1;rounded=0;" edge="1" parent="1">
          <mxGeometry width="50" height="50" relative="1" as="geometry">
            <mxPoint x="355" y="342" as="sourcePoint" />
            <mxPoint x="565" y="343" as="targetPoint" />
          </mxGeometry>
        </mxCell>
        <mxCell id="ox03FAlICArOvDzJ_NhT-30" value="8.Insere no banco" style="edgeLabel;html=1;align=center;verticalAlign=middle;resizable=0;points=[];" vertex="1" connectable="0" parent="ox03FAlICArOvDzJ_NhT-29">
          <mxGeometry x="-0.0275" relative="1" as="geometry">
            <mxPoint x="-2" y="-1" as="offset" />
          </mxGeometry>
        </mxCell>
        <mxCell id="ox03FAlICArOvDzJ_NhT-31" value="" style="endArrow=classic;html=1;rounded=0;dashed=1;" edge="1" parent="1">
          <mxGeometry width="50" height="50" relative="1" as="geometry">
            <mxPoint x="565" y="374" as="sourcePoint" />
            <mxPoint x="355" y="373" as="targetPoint" />
          </mxGeometry>
        </mxCell>
        <mxCell id="ox03FAlICArOvDzJ_NhT-32" value="9.Confirma inserção" style="edgeLabel;html=1;align=center;verticalAlign=middle;resizable=0;points=[];" vertex="1" connectable="0" parent="ox03FAlICArOvDzJ_NhT-31">
          <mxGeometry x="-0.0275" relative="1" as="geometry">
            <mxPoint x="-2" y="-1" as="offset" />
          </mxGeometry>
        </mxCell>
      </root>
    </mxGraphModel>
  </diagram>
</mxfile>
